# AST/ASF file generated using VICON BodyLanguage
# -----------------------------------------------
:version 1.10
:name VICON
:units
  mass 1.0
  length 0.45
  angle deg
:documentation
   .ast/.asf automatically generated from VICON data using
   VICON BodyBuilder and BodyLanguage model FoxedUp or BRILLIANT.MOD
:root
   order TX TY TZ RX RY RZ
   axis XYZ
   position 0 0 0  
   orientation 0 0 0 
:bonedata
  begin
     id 1 
     name lhipjoint
     direction 0.623529 -0.717805 0.309788 
     length 2.23224 
     axis 0 0 0  XYZ
  end
  begin
     id 2 
     name lfemur
     direction 0.34202 -0.939693 0  
     length 7.11402  
     axis 0 0 20  XYZ
    dof rx ry rz
    limits (-160.0 20.0)
           (-70.0 70.0)
           (-60.0 70.0)
  end
  begin
     id 3 
     name ltibia
     direction 0.34202 -0.939693 0   
     length 6.78496   
     axis 0 0 20   XYZ
    dof rx
    limits (-10.0 170.0)
  end
  begin
     id 4 
     name lfoot
     direction 0.125078 -0.343648 0.930732   
     length 1.84054   
     axis -90 7.62852e-016 20   XYZ
    dof rx rz
    limits (-45.0 90.0)
           (-70.0 20.0)
  end
  begin
     id 5 
     name ltoes
     direction 1.53565e-011 -4.21893e-011 1   
     length 0.916474   
     axis -90 7.62852e-016 20   XYZ
    dof rx
    limits (-90.0 20.0)
  end
  begin
     id 6 
     name rhipjoint
     direction -0.564688 -0.757748 0.327026   
     length 2.11457  
     axis 0 0 0  XYZ 
  end
  begin
     id 7 
     name rfemur
     direction -0.34202 -0.939693 0   
     length 7.14609   
     axis 0 0 -20   XYZ
    dof rx ry rz
    limits (-160.0 20.0)
           (-70.0 70.0)
           (-70.0 60.0)
  end
  begin
     id 8 
     name rtibia
     direction -0.34202 -0.939693 0   
     length 6.78101   
     axis 0 0 -20   XYZ
    dof rx
    limits (-10.0 170.0)
 end
 begin
     id 9 
     name rfoot
     direction -0.0992671 -0.272734 0.956955   
     length 1.96168  
     axis -90 -7.62852e-016 -20   XYZ
    dof rx rz
    limits (-45.0 90.0)
           (-20.0 70.0)
  end
  begin
     id 10 
     name rtoes
     direction -1.5356e-011 -4.21891e-011 1   
     length 0.982933   
     axis -90 -7.62852e-016 -20   XYZ
    dof rx
    limits (-90.0 20.0)
  end
  begin
     id 11 
     name lowerback
     direction -0.00596953 0.998668 0.0512524   
     length 1.87557   
     axis 0 0 0   XYZ
    dof rx ry rz
    limits (-20.0 45.0)
           (-30.0 30.0)
           (-30.0 30.0)
  end
  begin
     id 12 
     name upperback
     direction 0.00584879 0.999652 0.0257308   
     length 1.87883   
     axis 0 0 0   XYZ
    dof rx ry rz
    limits (-20.0 45.0)
           (-30.0 30.0)
           (-30.0 30.0)
  end
  begin
     id 13 
     name thorax
     direction 0.010104 0.999947 0.00178881   
     length 1.87779   
     axis 0 0 0   XYZ
    dof rx ry rz
    limits (-20.0 45.0)
           (-30.0 30.0)
           (-30.0 30.0)
  end
  begin
     id 14 
     name lowerneck
     direction 0.0120771 0.995934 -0.0892773   
     length 1.40897   
     axis 0 0 0   XYZ
    dof rx ry rz
    limits (-20.0 45.0)
           (-30.0 30.0)
           (-30.0 30.0)
  end
  begin
     id 15 
     name upperneck
     direction -0.030568 0.999465 -0.0116366   
     length 1.38661   
     axis 0 0 0   XYZ
    dof rx ry rz
    limits (-20.0 45.0)
           (-30.0 30.0)
           (-30.0 30.0)
  end
  begin
     id 16
     name head
     direction -0.0170715 0.999854 -0.00104426  
     length 1.47052  
     axis 0 0 0   XYZ
    dof rx ry rz
    limits (-20.0 45.0)
           (-30.0 30.0)
           (-30.0 30.0)
  end
  begin
     id 17 
     name lclavicle
     direction 0.977763 0.206143 0.038532  
     length 3.02424  
     axis 0 0 0   XYZ
    dof ry rz
    limits (-20.0 10.0)
           (0.0 20.0)
  end
  begin
     id 18 
     name lhumerus
     direction 1 -4.48965e-011 -2.62654e-027   
     length 4.68382   
     axis 180 -30 -90   XYZ
    dof rx ry rz
    limits (-60.0 90.0)
           (-90.0 90.0)
           (-90.0 90.0)
  end
  begin
     id 19
     name lradius
     direction 1 -4.48973e-011 -1.54954e-027   
     length 2.98124   
     axis 180 -30 -90   XYZ
    dof rx
    limits (-10.0 170.0)
  end
  begin
     id 20
     name lwrist
     direction 1 -4.48959e-011 7.20928e-028   
     length 1.49062   
     axis -5.52449e-016 90 90   XYZ
    dof ry
    limits (-180.0 0.0)
 end
  begin
     id 21 
     name lhand
     direction 1 -4.48971e-011 1.44186e-027   
     length 0.707595   
     axis -9.20027e-016 90 90   XYZ
    dof rx rz
    limits (-90.0 90.0)
           (-45.0 45.0)
  end
  begin
     id 22 
     name lfingers
     direction 1 -4.48985e-011 2.88371e-027   
     length 0.570481   
     axis -1.84005e-015 90 90   XYZ
    dof rx
    limits (0.0 90.0)
  end
  begin
     id 23
     name lthumb
     direction 0.707107 -6.34929e-011 0.707107   
     length 0.819101   
     axis -90 45 2.85299e-015   XYZ
    dof rx rz
    limits (-45.0 45.0)
           (-45.0 45.0)
  end
  begin
     id 24 
     name rclavicle
     direction -0.958661 0.284411 -0.00895327   
     length 3.11921  
     axis 0 0 0   XYZ 
    dof ry rz
    limits (-10.0 20.0)
           (-20.0 0.0)
  end
  begin
     id 25 
     name rhumerus
     direction -1 -4.48963e-011 -4.22193e-027  
     length 4.75876   
     axis 180 30 90   XYZ
    dof rx ry rz
    limits (-90.0 60.0)
           (-90.0 90.0)
           (-90.0 90.0)
  end
  begin
     id 26 
     name rradius
     direction -1 -4.48968e-011 -1.07616e-027   
     length 2.93293   
     axis 180 30 90   XYZ
    dof rx
    limits (-10.0 170.0)
  end
  begin
     id 27 
     name rwrist
     direction -1 -4.48965e-011 7.20928e-028   
     length 1.46647   
     axis -5.52449e-016 -90 -90   XYZ
    dof ry
    limits (-180.0 0.0)
  end
  begin
     id 28
     name rhand
     direction -1 -4.48971e-011 1.44186e-027   
     length 0.831748   
     axis -9.20027e-016 -90 -90   XYZ
    dof rx rz
    limits (-90.0 90.0)
           (-45.0 45.0)
  end
  begin
     id 29
     name rfingers
     direction -1 -4.48961e-011 2.88371e-027   
     length 0.670577   
     axis -1.84005e-015 -90 -90   XYZ
    dof rx
    limits (0.0 90.0)
  end
  begin
     id 30
     name rthumb
     direction -0.707107 -6.34929e-011 0.707107   
     length 0.962818   
     axis -90 -45 -2.85299e-015   XYZ
    dof rx rz
    limits (-45.0 45.0)
           (-45.0 45.0)
  end
:hierarchy
  begin
    root lhipjoint rhipjoint lowerback
    lhipjoint lfemur
    lfemur ltibia
    ltibia lfoot
    lfoot ltoes
    rhipjoint rfemur
    rfemur rtibia
    rtibia rfoot
    rfoot rtoes
    lowerback upperback
    upperback thorax
    thorax lowerneck lclavicle rclavicle
    lowerneck upperneck
    upperneck head
    lclavicle lhumerus
    lhumerus lradius
    lradius lwrist
    lwrist lhand lthumb
    lhand lfingers
    rclavicle rhumerus
    rhumerus rradius
    rradius rwrist
    rwrist rhand rthumb
    rhand rfingers
  end

#!OML:ASF E:\id_vita\Project 1\Capture day 1\Session 1\Female.ASF
:FULLY-SPECIFIED
:DEGREES
598
root 28.7593 12.6311 -0.672014 -106.885 -86.849 -194.932
lowerback 2.60476 -2.78581 -1.52414
upperback 1.42964 -3.75473 -0.499991
thorax 0.0717748 -1.88634 0.431071
lowerneck -15.5462 4.45572 -8.58999
upperneck 4.21968 6.82356 9.09968
head 3.13849 3.71093 4.63844
rclavicle 6.99722e-014 3.97569e-014
rhumerus 16.4242 38.0036 -71.0364
rradius 60.9906
rwrist 13.49
rhand -42.7015 446.904
rfingers 7.12502
rthumb -15.5709 57.5104
lclavicle 6.99722e-014 3.97569e-014
lhumerus 15.4129 -26.5157 51.9493
lradius 62.8803
lwrist -16.1142
lhand -58.4063 78.5229
lfingers 7.12502
lthumb -30.6334 -825.994
rfemur -105.297 6.51021 22.6103
rtibia 98.1368
rfoot -26.928 -10.2983
rtoes -20.6695
lfemur -19.3043 -8.94373 -25.0659
ltibia 26.1405
lfoot -15.1928 -3.75597
ltoes 2.5265
599
root 28.6967 12.6286 -0.685302 -114.075 -86.9569 -187.708
lowerback 2.40502 -2.68344 -1.42934
upperback 1.44264 -3.61131 -0.431831
thorax 0.192509 -1.81487 0.433832
lowerneck -15.6649 4.48076 -8.54154
upperneck 4.47406 6.84809 9.07056
head 3.23451 3.72405 4.6341
rclavicle -6.36111e-015 -1.55052e-014
rhumerus 16.2815 38.0205 -71.073
rradius 61.0448
rwrist 13.7299
rhand -42.7658 446.79
rfingers 7.12502
rthumb -15.6328 57.4012
lclavicle -6.36111e-015 -1.55052e-014
lhumerus 15.3055 -26.5756 51.9046
lradius 63.0474
lwrist -16.061
lhand -58.656 78.6623
lfingers 7.12502
lthumb -30.8715 -826.088
rfemur -105.019 6.90818 22.9028
rtibia 98.2122
rfoot -26.9713 -10.1933
rtoes -20.5055
lfemur -18.7547 -8.73228 -24.7681
ltibia 25.2087
lfoot -14.4176 -4.05195
ltoes 4.01616
600
root 28.6458 12.586 -0.730789 -132.424 -86.0853 -169.13
lowerback 1.69945 -2.22168 -2.19112
upperback 1.47271 -2.9931 -0.357796
thorax 0.650349 -1.51644 0.889521
lowerneck -15.4505 4.5056 -8.6493
upperneck 4.50566 6.87441 9.22756
head 3.19904 3.73944 4.69433
rclavicle -9.85972e-014 -6.16232e-014
rhumerus 16.2446 37.9095 -71.1614
rradius 61.0083
rwrist 14.247
rhand -42.9942 446.996
rfingers 7.12502
rthumb -15.8528 57.6247
lclavicle -9.85972e-014 -6.16232e-014
lhumerus 15.2465 -26.6168 51.7405
lradius 63.1916
lwrist -15.8955
lhand -58.9687 77.5798
lfingers 7.12502
lthumb -31.1695 -824.949
rfemur -105.128 8.61209 22.7821
rtibia 98.4596
rfoot -26.7631 -10.4664
rtoes -21.1477
lfemur -18.1061 -7.87127 -24.5972
ltibia 24.4693
lfoot -14.1905 -3.56688
ltoes 3.38713
601
root 28.5844 12.5962 -0.744764 -142.73 -85.3246 -158.81
lowerback 1.59276 -1.88502 -2.34734
upperback 1.47022 -2.54373 -0.305056
thorax 0.702557 -1.29425 1.02326
lowerneck -15.3263 4.55248 -8.73207
upperneck 4.5728 6.93571 9.3137
head 3.18822 3.77053 4.73444
rclavicle 6.2816e-014 2.62396e-014
rhumerus 16.5439 38.2605 -70.8097
rradius 60.9524
rwrist 13.1678
rhand -42.6228 446.458
rfingers 7.12502
rthumb -15.4951 57.0591
lclavicle 6.2816e-014 2.62396e-014
lhumerus 15.1604 -26.7031 51.6874
lradius 63.2906
lwrist -15.7037
lhand -58.888 75.5822
lfingers 7.12502
lthumb -31.0926 -822.966
rfemur -104.638 9.53395 23.0946
rtibia 98.3931
rfoot -26.8176 -10.3457
rtoes -22.0585
lfemur -17.7984 -7.00208 -24.5641
ltibia 23.9781
lfoot -13.5671 -3.4263
ltoes 3.02492
602
root 28.5291 12.5797 -0.729786 -126.334 -86.7544 -175.323
lowerback 1.65199 -2.49378 -1.9507
upperback 1.48482 -3.34963 -0.239374
thorax 0.693878 -1.69256 0.876502
lowerneck -15.4167 4.60188 -8.51389
upperneck 4.71134 6.98305 9.04057
head 3.25673 3.78519 4.62436
rclavicle 3.10104e-014 4.21423e-014
rhumerus 16.5997 38.2097 -70.5892
rradius 61.0186
rwrist 13.2726
rhand -42.8252 446.905
rfingers 7.12502
rthumb -15.69 57.5213
lclavicle 3.10104e-014 4.21423e-014
lhumerus 15.0119 -26.7116 51.8905
lradius 63.3747
lwrist -15.6893
lhand -58.7084 75.3532
lfingers 7.12502
lthumb -30.9214 -822.77
rfemur -104.569 7.74373 23.1766
rtibia 98.9358
rfoot -27.1241 -10.2788
rtoes -22.18
lfemur -17.3594 -8.2419 -24.5107
ltibia 23.4176
lfoot -12.757 -4.12092
ltoes 3.07869
